PathFileType	4	(X/Y/Z)	45_1_52_p1_0-239.trc
DataRate	CameraRate	NumFrames	NumMarkers	Units	OrigDataRate	OrigDataStartFrame	OrigNumFrames
47.0	47.0	4	27	m	47.0	0	240
Frame#	Time	RHip			RKnee			RAnkle			RBigToe			RSmallToe			RHeel			LHip			LKnee			LAnkle			LBigToe			LSmallToe			LHeel			Neck			Head			Nose			RShoulder			RElbow			RWrist			RThumb			RIndex			RPinky			LShoulder			LElbow			LWrist			LThumb			LIndex			LPinky			
		X1	Y1	Z1	X2	Y2	Z2	X3	Y3	Z3	X4	Y4	Z4	X5	Y5	Z5	X6	Y6	Z6	X7	Y7	Z7	X8	Y8	Z8	X9	Y9	Z9	X10	Y10	Z10	X11	Y11	Z11	X12	Y12	Z12	X13	Y13	Z13	X14	Y14	Z14	X15	Y15	Z15	X16	Y16	Z16	X17	Y17	Z17	X18	Y18	Z18	X19	Y19	Z19	X20	Y20	Z20	X21	Y21	Z21	X22	Y22	Z22	X23	Y23	Z23	X24	Y24	Z24	X25	Y25	Z25	X26	Y26	Z26	X27	Y27	Z27	
0	0.0	0.5760139115159699	0.44463243328503516	0.9154408414878297	0.5880653283069639	0.6156344279948823	1.317131369668704	0.6027533306838407	0.8110549289377286	1.6707469197630889	0.5989730039838344	0.7062473635376946	1.7591734785423485	0.6479844996304117	0.7257199029314728	1.748140474970071	0.5883294593998274	0.9495065470111596	1.7233420958483603	0.3650484121211219	0.44572416166878354	0.9419144102425586	0.39211734899087053	0.6438884610649375	1.3396855121628304	0.4121409848766181	0.8262727726521618	1.7105533900499272	0.43191528876327806	0.6777779179629899	1.764332223726222	0.38317058238466956	0.7199014843095515	1.7636253458326538	0.423722002886617	0.8981765337839618	1.7509727895156737	0.4246762217028924	0.27277819583099017	0.4367910681239466	0.4013727538242809	0.17998348562755312	0.2129496068077882	0.42103724115722796	0.10013588892000409	0.3542625226653301	0.577267453886313	0.31453679809229745	0.5168161825420579	0.6244652421633968	0.3258066610053327	0.7320169908161566	0.5097673010707261	0.26689334691964484	0.9303113775369295	0.4785715294909941	0.3627660007709155	1.0415833707586672	0.4732436929500123	0.3639810760343007	1.041957192626806	0.45997780807702865	0.35703227475639226	1.0294214200604015	0.2652262367824443	0.28769707125148253	0.5218654518809944	0.2826347646420125	0.33856087183446826	0.7494883735995904	0.4163121258214231	0.2630927454308649	0.9435587634867019	0.49720201522366175	0.3339750602806874	1.0160145190427656	0.498067077626629	0.3480039460145903	1.040445708388162	0.4576819851781332	0.3609352478463949	1.039237582775335
1	0.02127659574468085	0.5719544579163286	0.4429652378317728	0.912508885728776	0.5825315963202375	0.6292183092874059	1.3149758954973694	0.6026246789225149	0.8110165031806035	1.6705890461235622	0.5934907253428287	0.7005069616510489	1.754656132524998	0.6484709391758836	0.7262410980391335	1.7478373698775358	0.5839257937293659	0.9470085871536998	1.7234369812670887	0.36668571333188343	0.4314519795067123	0.9426637148653892	0.39655860242920443	0.6247600663519911	1.332648472120306	0.41499071402345916	0.8416804967128463	1.7130416208645636	0.43192263002070025	0.6778634568843042	1.7642144193468619	0.3836948889896522	0.719907220406198	1.7635671287683576	0.4283918654028538	0.8803665510869924	1.7421332937422664	0.4246871798718208	0.2727154829537051	0.4368196269650184	0.4057490276789628	0.16864782982060195	0.21577756659307923	0.42523730956875977	0.10125304707176114	0.3535398309527191	0.5772147476378311	0.3141488230147745	0.5168756187988	0.6243455244256638	0.3257284138776017	0.7320545755883027	0.5097258338056424	0.2668062535158071	0.9303351338332787	0.47829363519928925	0.3612559413755233	1.0415759339353183	0.4692378955465646	0.36339691156986936	1.046114464449927	0.4572383381508944	0.3587896419495176	1.0341198498698012	0.2651609431419233	0.28802884750922236	0.5219198823085823	0.2780283581247272	0.33695432532232017	0.7502268851035888	0.4186615956852732	0.2760397640875481	0.946200951590654	0.49719616086340596	0.3344284714203379	1.0195511661772512	0.49787153136782264	0.34645817292353775	1.0404065850523383	0.45401330519831073	0.3604302277206737	1.0437519528525128
2	0.0425531914893617	0.567795965326312	0.4572970803228085	0.9125106552121534	0.58373599313238	0.6312115489879467	1.319244974179322	0.6063521210034472	0.8266318557129153	1.6731723084599697	0.5947597464948587	0.7030442530920553	1.758670415442195	0.643687256237679	0.7233090456323926	1.7478782862730364	0.588361945291699	0.9496636759618722	1.7231715673264	0.3669142632344006	0.4303416545561786	0.9391298152794607	0.39783648791146137	0.6276104631867465	1.3373122637695367	0.41417125441956787	0.8420218220643175	1.7089969763895956	0.43187169663378616	0.6779145496607052	1.764253334477248	0.3833630933999525	0.7206080147195522	1.7637484950033604	0.4283880449270762	0.8805180664632959	1.7421457759208494	0.42467514044327437	0.27274184065570944	0.43685138293073167	0.4057441298254126	0.1686906961131173	0.21578491278639966	0.4252563395407622	0.10127629395382673	0.3535809505626551	0.5733721502309349	0.3132399725056462	0.5174607785271313	0.6203319421086769	0.338813223930404	0.731324056368207	0.5097506389853743	0.26687196565240934	0.930372216076814	0.47877442432596784	0.3609242851253035	1.0417387517144177	0.4726990989389727	0.3636503176823667	1.0457470607828732	0.45584647054559	0.3580189003522149	1.0338040873510153	0.2652382205323798	0.2878171087508567	0.5219445845258951	0.2780519373806335	0.3367992082162091	0.7502963133890824	0.4186590277941027	0.2760768753142225	0.9462399399271556	0.4973614390688098	0.3344947657948462	1.0195371368224095	0.49347173889779683	0.34781249922559715	1.0438461861641564	0.4540713666570569	0.3605512940715938	1.0437482403851763
3	0.06382978723404255	0.567672476342672	0.45804811017874775	0.9160262617936943	0.5879116039492998	0.6333765606310956	1.3189328829321907	0.6019405881734146	0.845242168725992	1.677504640461402	0.5947769907595777	0.7031793823055207	1.7585961861815558	0.6437447764927705	0.7235340971851835	1.7478663338209013	0.5883226660580569	0.9499346043938972	1.7232590036281006	0.3665393219027474	0.4314964462963187	0.9426412599149674	0.3978870701452875	0.6276711342451352	1.3374022470313771	0.41496815784513663	0.8418253628186343	1.7131261795478319	0.43258562796198746	0.6761581365667964	1.7601720916688202	0.3832742088931967	0.7212728618898092	1.7639665194524732	0.4283929846306714	0.8807619921899907	1.7422288392479317	0.42470773649726523	0.2727012456884392	0.4368665246951791	0.40571036205258804	0.16866547117134828	0.21570722874298118	0.4252337122200966	0.10138570043308855	0.3535852183594434	0.5734516489521662	0.3131050748728336	0.5174495914525153	0.6243178709082587	0.3258062100806384	0.7320323512022168	0.5097106532752442	0.26680938888557754	0.9302619234878119	0.47883067181884414	0.3615294642097546	1.0416733463839722	0.4694261720833186	0.3643424043362778	1.0460706697359472	0.4553711436490952	0.35657348741795036	1.0333493023840663	0.2653005230088364	0.2877435834286826	0.5219122612855935	0.2779715522552761	0.3368812408789916	0.7502464869850539	0.4185217252534188	0.2762332494756611	0.9462517752305264	0.4971954989321905	0.3348172144494842	1.0195709094289325	0.4936102085254811	0.3475303545437094	1.0408638314089573	0.4542010308170927	0.3592791202125866	1.0400324735306343
